<svg width="1200" height="675" viewBox="0 0 1200 675" fill="none" xmlns="http://www.w3.org/2000/svg">
  <defs>
    <linearGradient id="bg2" x1="0" y1="0" x2="1" y2="1">
      <stop offset="0" stop-color="#fef6ea"/>
      <stop offset="1" stop-color="#eef4ff"/>
    </linearGradient>
  </defs>
  <rect width="1200" height="675" fill="url(#bg2)"/>
  <rect x="80" y="60" width="1040" height="80" rx="26" fill="#ffffff" stroke="#1f1c19" stroke-opacity="0.08"/>
  <text x="110" y="110" font-family="'Fraunces', Georgia, serif" font-size="30" fill="#1f1c19">Inventory</text>
  <rect x="80" y="170" width="500" height="440" rx="30" fill="#ffffff" stroke="#1f1c19" stroke-opacity="0.08"/>
  <rect x="620" y="170" width="500" height="210" rx="30" fill="#ffffff" stroke="#1f1c19" stroke-opacity="0.08"/>
  <rect x="620" y="400" width="500" height="210" rx="30" fill="#ffffff" stroke="#1f1c19" stroke-opacity="0.08"/>
  <rect x="120" y="210" width="440" height="54" rx="16" fill="#f6f2ff"/>
  <rect x="120" y="280" width="440" height="54" rx="16" fill="#ffe8c7"/>
  <rect x="120" y="350" width="440" height="54" rx="16" fill="#e0f1ff"/>
  <rect x="120" y="420" width="440" height="54" rx="16" fill="#ffd7cf"/>
  <rect x="120" y="490" width="220" height="54" rx="16" fill="#ff6a3d"/>
  <text x="150" y="525" font-family="'Space Grotesk', Arial, sans-serif" font-size="16" fill="#ffffff">Create product</text>
  <rect x="650" y="210" width="440" height="40" rx="14" fill="#f8f7f5"/>
  <rect x="650" y="265" width="440" height="40" rx="14" fill="#f8f7f5"/>
  <rect x="650" y="440" width="440" height="40" rx="14" fill="#f8f7f5"/>
  <rect x="650" y="495" width="440" height="40" rx="14" fill="#f8f7f5"/>
</svg>
